# xmcd
#
# Track frame offsets: 
#        150
#        14851
#        28545
#        43175
#        59503
#        91226
#        106964
#        126177
#        146121
#
# Disc length: 2187 seconds
#
# Revision: 6
# Processed by: cddbd v1.5.2PL0 Copyright (c) Steve Scherf et al.
# Submitted via: ExactAudioCopy v0.99pb5
#
DISCID=81088909
DTITLE=Mahal, Taj - The Natch'l Blues
DYEAR=1968
DGENRE=Blues
TTITLE0=Good morning Miss Brown
TTITLE1=Corrina
TTITLE2=I ain't gonna let nobody steal my jellyroll
TTITLE3=Going up to the country, paint my mailbox blue
TTITLE4=Done changed my way of living
TTITLE5=She caught the Katy and left me a mule to ride
TTITLE6=The cuckoo
TTITLE7=You don't miss your water ('til your well runs dry)
TTITLE8=A lot of love
EXTD=
EXTT0=
EXTT1=
EXTT2=
EXTT3=
EXTT4=
EXTT5=
EXTT6=
EXTT7=
EXTT8=
PLAYORDER=
